<svg xmlns="http://www.w3.org/2000/svg" xmlns:xlink="http://www.w3.org/1999/xlink" width="500" zoomAndPan="magnify" viewBox="0 0 375 374.999991" height="500" preserveAspectRatio="xMidYMid meet" version="1.0"><defs><g/></defs><g fill="#f3e6d6" fill-opacity="1"><g transform="translate(87.961925, 199.499987)"><g><path d="M 11.820312 -25.0625 L 1.773438 -25.0625 L 1.773438 0 L 7.84375 0 L 7.84375 -7.382812 L 11.820312 -7.382812 C 17.640625 -7.382812 20.554688 -11.820312 20.554688 -16.1875 C 20.554688 -20.554688 17.640625 -25.0625 11.820312 -25.0625 Z M 11.820312 -13.097656 L 7.84375 -13.097656 L 7.84375 -19.167969 L 11.820312 -19.167969 C 13.703125 -19.167969 14.625 -17.570312 14.625 -16.082031 C 14.625 -14.625 13.703125 -13.097656 11.820312 -13.097656 Z M 11.820312 -13.097656 "/></g></g></g><g fill="#f3e6d6" fill-opacity="1"><g transform="translate(108.904591, 199.499987)"><g><path d="M 11.429688 -25.0625 L 1.773438 -25.0625 L 1.773438 0 L 7.808594 0 L 7.808594 -8.414062 L 8.804688 -8.414062 L 13.984375 0 L 20.445312 0 L 20.445312 -1.136719 L 15.121094 -9.015625 C 18.386719 -10.578125 19.984375 -13.773438 19.984375 -16.789062 C 19.984375 -20.90625 17.109375 -25.0625 11.429688 -25.0625 Z M 11.289062 -13.914062 L 7.808594 -13.914062 L 7.808594 -19.238281 L 11.289062 -19.238281 C 13.132812 -19.238281 14.058594 -17.855469 14.058594 -16.542969 C 14.058594 -15.265625 13.097656 -13.914062 11.289062 -13.914062 Z M 11.289062 -13.914062 "/></g></g></g><g fill="#f3e6d6" fill-opacity="1"><g transform="translate(129.77627, 199.499987)"><g><path d="M 1.808594 -12.386719 C 1.808594 -5.074219 7.5625 0.355469 14.660156 0.355469 C 21.761719 0.355469 27.546875 -5.183594 27.546875 -12.386719 C 27.546875 -19.699219 21.761719 -25.238281 14.660156 -25.238281 C 7.5625 -25.238281 1.808594 -19.699219 1.808594 -12.386719 Z M 7.84375 -12.386719 C 7.84375 -17.109375 11.253906 -19.417969 14.660156 -19.417969 C 18.066406 -19.417969 21.441406 -17.074219 21.441406 -12.386719 C 21.441406 -7.738281 17.996094 -5.394531 14.589844 -5.394531 C 11.183594 -5.394531 7.84375 -7.703125 7.84375 -12.386719 Z M 7.84375 -12.386719 "/></g></g></g><g fill="#f3e6d6" fill-opacity="1"><g transform="translate(158.421602, 199.499987)"><g><path d="M 15.191406 -10.933594 L 15.191406 -25.027344 L 3.160156 -25.027344 L 3.160156 -19.453125 L 9.160156 -19.453125 L 9.160156 -10.933594 C 9.160156 -7.097656 7.207031 -5.679688 0.640625 -5.679688 L 0.640625 0 C 11.21875 0 15.191406 -3.015625 15.191406 -10.933594 Z M 15.191406 -10.933594 "/></g></g></g><g fill="#f3e6d6" fill-opacity="1"><g transform="translate(174.749768, 199.499987)"><g><path d="M 1.773438 -25.0625 L 1.773438 0 L 18.175781 0 L 18.175781 -5.855469 L 7.878906 -5.855469 L 7.878906 -9.832031 L 17.925781 -9.832031 L 17.925781 -15.726562 L 7.878906 -15.726562 L 7.878906 -19.203125 L 18.140625 -19.203125 L 18.140625 -25.0625 Z M 1.773438 -25.0625 "/></g></g></g><g fill="#f3e6d6" fill-opacity="1"><g transform="translate(193.846626, 199.499987)"><g><path d="M 7.277344 -12.386719 C 7.277344 -17.109375 10.683594 -19.453125 14.09375 -19.453125 C 16.933594 -19.453125 19.808594 -17.820312 20.625 -14.519531 L 26.765625 -14.519531 C 25.984375 -20.90625 20.480469 -25.238281 14.09375 -25.238281 C 6.992188 -25.238281 1.242188 -19.699219 1.242188 -12.386719 C 1.242188 -5.074219 6.992188 0.355469 14.09375 0.355469 C 20.554688 0.355469 25.878906 -3.941406 26.800781 -10.4375 L 20.660156 -10.4375 C 19.878906 -7.0625 17.003906 -5.359375 14.09375 -5.359375 C 10.683594 -5.359375 7.277344 -7.703125 7.277344 -12.386719 Z M 7.277344 -12.386719 "/></g></g></g><g fill="#f3e6d6" fill-opacity="1"><g transform="translate(221.072107, 199.499987)"><g><path d="M 20.625 -25.132812 L 1.171875 -25.132812 L 1.171875 -19.453125 L 7.878906 -19.453125 L 7.878906 0 L 13.949219 0 L 13.949219 -19.453125 L 20.625 -19.453125 Z M 20.625 -25.132812 "/></g></g></g><g fill="#f3e6d6" fill-opacity="1"><g transform="translate(242.618206, 199.499987)"><g><path d="M 15.832031 0 L 15.832031 -5.429688 L 11.714844 -5.429688 L 11.714844 -19.453125 L 15.832031 -19.453125 L 15.832031 -24.992188 L 1.527344 -24.992188 L 1.527344 -19.453125 L 5.644531 -19.453125 L 5.644531 -5.429688 L 1.527344 -5.429688 L 1.527344 0 Z M 15.832031 0 "/></g></g></g><g fill="#f3e6d6" fill-opacity="1"><g transform="translate(259.088348, 199.499987)"><g><path d="M 7.277344 -12.386719 C 7.277344 -17.109375 10.683594 -19.453125 14.09375 -19.453125 C 16.933594 -19.453125 19.808594 -17.820312 20.625 -14.519531 L 26.765625 -14.519531 C 25.984375 -20.90625 20.480469 -25.238281 14.09375 -25.238281 C 6.992188 -25.238281 1.242188 -19.699219 1.242188 -12.386719 C 1.242188 -5.074219 6.992188 0.355469 14.09375 0.355469 C 20.554688 0.355469 25.878906 -3.941406 26.800781 -10.4375 L 20.660156 -10.4375 C 19.878906 -7.0625 17.003906 -5.359375 14.09375 -5.359375 C 10.683594 -5.359375 7.277344 -7.703125 7.277344 -12.386719 Z M 7.277344 -12.386719 "/></g></g></g></svg>