<svg xmlns="http://www.w3.org/2000/svg" xmlns:xlink="http://www.w3.org/1999/xlink" width="500" zoomAndPan="magnify" viewBox="0 0 375 374.999991" height="500" preserveAspectRatio="xMidYMid meet" version="1.0"><defs><g/></defs><g fill="#444560" fill-opacity="1"><g transform="translate(88.02527, 199.783889)"><g><path d="M 11.816406 -25.050781 L 1.773438 -25.050781 L 1.773438 0 L 7.839844 0 L 7.839844 -7.378906 L 11.816406 -7.378906 C 17.632812 -7.378906 20.542969 -11.816406 20.542969 -16.179688 C 20.542969 -20.542969 17.632812 -25.050781 11.816406 -25.050781 Z M 11.816406 -13.09375 L 7.839844 -13.09375 L 7.839844 -19.160156 L 11.816406 -19.160156 C 13.695312 -19.160156 14.617188 -17.5625 14.617188 -16.074219 C 14.617188 -14.617188 13.695312 -13.09375 11.816406 -13.09375 Z M 11.816406 -13.09375 "/></g></g></g><g fill="#444560" fill-opacity="1"><g transform="translate(108.955972, 199.783889)"><g><path d="M 11.425781 -25.050781 L 1.773438 -25.050781 L 1.773438 0 L 7.804688 0 L 7.804688 -8.410156 L 8.800781 -8.410156 L 13.980469 0 L 20.4375 0 L 20.4375 -1.136719 L 15.113281 -9.011719 C 18.378906 -10.574219 19.976562 -13.765625 19.976562 -16.78125 C 19.976562 -20.898438 17.101562 -25.050781 11.425781 -25.050781 Z M 11.28125 -13.90625 L 7.804688 -13.90625 L 7.804688 -19.230469 L 11.28125 -19.230469 C 13.128906 -19.230469 14.050781 -17.847656 14.050781 -16.535156 C 14.050781 -15.257812 13.09375 -13.90625 11.28125 -13.90625 Z M 11.28125 -13.90625 "/></g></g></g><g fill="#444560" fill-opacity="1"><g transform="translate(129.81573, 199.783889)"><g><path d="M 1.808594 -12.382812 C 1.808594 -5.074219 7.558594 0.355469 14.652344 0.355469 C 21.75 0.355469 27.53125 -5.179688 27.53125 -12.382812 C 27.53125 -19.691406 21.75 -25.226562 14.652344 -25.226562 C 7.558594 -25.226562 1.808594 -19.691406 1.808594 -12.382812 Z M 7.839844 -12.382812 C 7.839844 -17.101562 11.246094 -19.40625 14.652344 -19.40625 C 18.058594 -19.40625 21.429688 -17.066406 21.429688 -12.382812 C 21.429688 -7.734375 17.988281 -5.394531 14.582031 -5.394531 C 11.175781 -5.394531 7.839844 -7.699219 7.839844 -12.382812 Z M 7.839844 -12.382812 "/></g></g></g><g fill="#444560" fill-opacity="1"><g transform="translate(158.444751, 199.783889)"><g><path d="M 15.183594 -10.929688 L 15.183594 -25.011719 L 3.15625 -25.011719 L 3.15625 -19.441406 L 9.152344 -19.441406 L 9.152344 -10.929688 C 9.152344 -7.097656 7.203125 -5.675781 0.636719 -5.675781 L 0.636719 0 C 11.210938 0 15.183594 -3.015625 15.183594 -10.929688 Z M 15.183594 -10.929688 "/></g></g></g><g fill="#444560" fill-opacity="1"><g transform="translate(174.763561, 199.783889)"><g><path d="M 1.773438 -25.050781 L 1.773438 0 L 18.164062 0 L 18.164062 -5.855469 L 7.875 -5.855469 L 7.875 -9.828125 L 17.917969 -9.828125 L 17.917969 -15.71875 L 7.875 -15.71875 L 7.875 -19.195312 L 18.128906 -19.195312 L 18.128906 -25.050781 Z M 1.773438 -25.050781 "/></g></g></g><g fill="#444560" fill-opacity="1"><g transform="translate(193.849505, 199.783889)"><g><path d="M 7.273438 -12.382812 C 7.273438 -17.101562 10.679688 -19.441406 14.085938 -19.441406 C 16.925781 -19.441406 19.796875 -17.8125 20.613281 -14.511719 L 26.75 -14.511719 C 25.972656 -20.898438 20.472656 -25.226562 14.085938 -25.226562 C 6.988281 -25.226562 1.242188 -19.691406 1.242188 -12.382812 C 1.242188 -5.074219 6.988281 0.355469 14.085938 0.355469 C 20.542969 0.355469 25.863281 -3.9375 26.789062 -10.429688 L 20.648438 -10.429688 C 19.867188 -7.058594 16.996094 -5.359375 14.085938 -5.359375 C 10.679688 -5.359375 7.273438 -7.699219 7.273438 -12.382812 Z M 7.273438 -12.382812 "/></g></g></g><g fill="#444560" fill-opacity="1"><g transform="translate(221.059478, 199.783889)"><g><path d="M 20.613281 -25.121094 L 1.171875 -25.121094 L 1.171875 -19.441406 L 7.875 -19.441406 L 7.875 0 L 13.945312 0 L 13.945312 -19.441406 L 20.613281 -19.441406 Z M 20.613281 -25.121094 "/></g></g></g><g fill="#444560" fill-opacity="1"><g transform="translate(242.593279, 199.783889)"><g><path d="M 15.824219 0 L 15.824219 -5.429688 L 11.707031 -5.429688 L 11.707031 -19.441406 L 15.824219 -19.441406 L 15.824219 -24.976562 L 1.527344 -24.976562 L 1.527344 -19.441406 L 5.640625 -19.441406 L 5.640625 -5.429688 L 1.527344 -5.429688 L 1.527344 0 Z M 15.824219 0 "/></g></g></g><g fill="#444560" fill-opacity="1"><g transform="translate(259.053987, 199.783889)"><g><path d="M 7.273438 -12.382812 C 7.273438 -17.101562 10.679688 -19.441406 14.085938 -19.441406 C 16.925781 -19.441406 19.796875 -17.8125 20.613281 -14.511719 L 26.75 -14.511719 C 25.972656 -20.898438 20.472656 -25.226562 14.085938 -25.226562 C 6.988281 -25.226562 1.242188 -19.691406 1.242188 -12.382812 C 1.242188 -5.074219 6.988281 0.355469 14.085938 0.355469 C 20.542969 0.355469 25.863281 -3.9375 26.789062 -10.429688 L 20.648438 -10.429688 C 19.867188 -7.058594 16.996094 -5.359375 14.085938 -5.359375 C 10.679688 -5.359375 7.273438 -7.699219 7.273438 -12.382812 Z M 7.273438 -12.382812 "/></g></g></g></svg>